<?xml version="1.0" encoding="UTF-8" standalone="no"?>
<!-- Created with Inkscape (http://www.inkscape.org/) -->

<svg
   version="1.1"
   id="svg1"
   width="578.85333"
   height="569.8667"
   viewBox="0 0 578.85333 569.8667"
   sodipodi:docname="dpsg-lilie_outline.eps"
   xmlns:inkscape="http://www.inkscape.org/namespaces/inkscape"
   xmlns:sodipodi="http://sodipodi.sourceforge.net/DTD/sodipodi-0.dtd"
   xmlns="http://www.w3.org/2000/svg"
   xmlns:svg="http://www.w3.org/2000/svg">
  <defs
     id="defs1" />
  <sodipodi:namedview
     id="namedview1"
     pagecolor="#ffffff"
     bordercolor="#000000"
     borderopacity="0.25"
     inkscape:showpageshadow="2"
     inkscape:pageopacity="0.0"
     inkscape:pagecheckerboard="0"
     inkscape:deskcolor="#d1d1d1">
    <inkscape:page
       x="0"
       y="0"
       inkscape:label="1"
       id="page1"
       width="578.85333"
       height="569.8667"
       margin="0"
       bleed="0" />
  </sodipodi:namedview>
  <g
     id="g1"
     inkscape:groupmode="layer"
     inkscape:label="1">
    <g
       id="group-R5">
      <path
         id="path2"
         d="m 2171.5,4268.76 c 31.89,0 351.98,8.8 483.29,-82.31 129.89,-90.23 37.18,-445.75 22.27,-460.89 -43.64,-44.29 917.71,-17.57 936.31,-20.26 18.6,-2.63 414.93,-416.63 372.66,-435.38 -162.31,-72.11 -1299.87,-114.57 -1329.1,-130.49 -29.19,-15.96 -85.73,-666.54 -85.73,-709.97 0,-39.63 835.23,602.24 1260.63,621.61 290.95,13.23 403.03,-285.21 426.04,-368.63 25.65,-93.18 99.68,-339.52 72.74,-725.3 -12.64,-180.94 -135.23,-891.78 -512.69,-1200.921 -98.18,-80.34 -308.03,-177.949 -465,-85.028 -134.47,79.649 -716.1,547.429 -698.13,549.379 101.06,10.85 268.29,-50.64 347.46,3.31 119.94,81.6 128.81,606.12 146.15,786.41 2.88,30.17 -398.49,-101.03 -470.21,-151.49 -71.74,-50.46 -164.08,-151.14 -188.22,-241.38 -25.43,-95.25 20.59,-238.11 -20.38,-238.11 h -596.18 c -40.97,0 5.03,142.86 -20.37,238.11 -24.11,90.24 -116.45,190.92 -188.17,241.38 -71.74,50.46 -473.15,181.66 -470.23,151.49 17.4,-180.29 26.19,-704.81 146.09,-786.41 79.28,-53.95 246.48,7.54 347.51,-3.31 18.03,-1.95 -563.69,-469.73 -698.146,-549.379 C 833.203,578.27 623.316,675.879 525.176,756.219 147.715,1065.36 25.082,1776.2 12.3984,1957.14 c -26.8867,385.78 24.7149,574 71.1719,725.3 25.7147,83.71 136.6837,381.86 427.6017,368.63 425.492,-19.37 1260.648,-661.24 1260.648,-621.61 0,43.43 -56.46,694.01 -85.69,709.97 -29.2,15.92 -1166.814,58.38 -1329.153,130.49 -42.258,18.75 354.113,432.75 372.773,435.38 18.594,2.69 979.86,-24.03 936.32,20.26 -14.94,15.14 -107.69,370.66 22.17,460.89 131.26,91.11 451.4,82.31 483.26,82.31 z"
         style="fill:none;stroke:#040606;stroke-width:10;stroke-linecap:butt;stroke-linejoin:miter;stroke-miterlimit:4;stroke-dasharray:none;stroke-opacity:1"
         transform="matrix(0.13333333,0,0,-0.13333333,0,569.86667)" />
      <path
         id="path3"
         d="m 2171.5,1261.36 c 0,0 -34.8,1.03 275.44,1.15 57.94,0 670.8,-922.53 723.71,-993.041 22.52,-29.938 -163.83,-99.539 -220.37,-97.028 -102.35,4.68 -373.03,267.321 -405.52,299.778 -32.54,32.582 49.72,-390.8596 26.44,-418.7502 -23.18,-27.879 -399.7,-48.45708 -399.7,-48.45708 0,0 -376.37,20.57808 -399.68,48.45708 -23.24,27.8906 59,451.3322 26.48,418.7502 -32.55,-32.457 -303.26,-295.098 -405.55,-299.778 -56.49,-2.511 -242.88,67.09 -220.4,97.028 52.91,70.511 664.95,993.951 722.92,993.041 276.23,0 276.23,-1.15 276.23,-1.15 z"
         style="fill:none;stroke:#040606;stroke-width:10;stroke-linecap:butt;stroke-linejoin:miter;stroke-miterlimit:4;stroke-dasharray:none;stroke-opacity:1"
         transform="matrix(0.13333333,0,0,-0.13333333,0,569.86667)" />
    </g>
  </g>
</svg>
